<svg width="90" height="91" viewBox="0 0 90 91" fill="none" xmlns="http://www.w3.org/2000/svg">
<path d="M45 90.4688C69.8528 90.4688 90 70.3216 90 45.4688C90 20.6159 69.8528 0.46875 45 0.46875C20.1472 0.46875 0 20.6159 0 45.4688C0 70.3216 20.1472 90.4688 45 90.4688Z" fill="black"/>
<path d="M70.875 53.9827C68.256 53.9827 66.132 56.1067 66.132 58.7257C66.132 61.3447 68.256 63.4687 70.875 63.4687C73.494 63.4687 75.618 61.3447 75.618 58.7257C75.618 56.1067 73.494 53.9827 70.875 53.9827ZM61.11 27.7567L42.678 44.1727L24.255 27.7567C23.517 27.0997 22.356 27.6217 22.356 28.6117V62.3797C22.356 62.9827 22.842 63.4687 23.445 63.4687H30.852C31.455 63.4687 31.941 62.9827 31.941 62.3797V47.4307L41.517 55.9537C42.192 56.5477 43.2 56.5477 43.875 55.9537L53.451 47.4307V62.3797C53.451 62.9827 53.937 63.4687 54.54 63.4687H61.947C62.55 63.4687 63.036 62.9827 63.036 62.3797V28.6117C63.018 27.6307 61.848 27.1087 61.11 27.7567Z" fill="white"/>
</svg>
