<svg width="460" height="92" viewBox="0 0 460 92" fill="none" xmlns="http://www.w3.org/2000/svg">
<path d="M167.966 13.6116C168.61 13.6116 169.162 13.0598 169.162 12.416V1.47152C169.162 0.827728 168.61 0.275907 167.966 0.275907H133.017C132.374 0.275907 131.822 0.827728 131.822 1.47152V12.416C131.822 13.0598 132.374 13.6116 133.017 13.6116H143.134V54.2624C143.134 54.9062 143.686 55.458 144.33 55.458H156.562C157.206 55.458 157.757 54.9062 157.757 54.2624V13.6116H167.966ZM210.088 13.6116C210.732 13.6116 211.284 13.0598 211.284 12.416V1.47152C211.284 0.827728 210.732 0.275907 210.088 0.275907H175.14C174.496 0.275907 173.944 0.827728 173.944 1.47152V12.416C173.944 13.0598 174.496 13.6116 175.14 13.6116H185.257V54.2624C185.257 54.9062 185.808 55.458 186.452 55.458H198.776C199.42 55.458 199.972 54.9062 199.972 54.2624V13.6116H210.088ZM417.665 0.275907H405.341C404.697 0.275907 404.145 0.827728 404.053 1.47152V32.6494C404.053 38.0756 399.639 42.3982 394.305 42.3982H393.845C388.602 42.0303 384.556 37.6158 384.648 32.3735V1.47152C384.648 0.827728 384.096 0.275907 383.452 0.275907H371.22C370.576 0.275907 370.025 0.827728 370.025 1.47152V31.4538C370.025 44.7895 380.509 56.0098 393.937 56.3777C407.456 56.6536 418.677 45.8931 418.861 32.3735V1.47152C418.861 0.827728 418.401 0.275907 417.665 0.275907ZM458.776 42.1223H442.957V1.47152C442.957 0.827728 442.405 0.275907 441.761 0.275907H429.437C428.793 0.275907 428.242 0.827728 428.242 1.47152V51.7792C428.242 53.8025 429.897 55.458 431.92 55.458H458.776C459.419 55.458 459.971 54.9062 459.971 54.2624V43.3179C459.971 42.6741 459.419 42.1223 458.776 42.1223ZM311.715 35.6844C320.912 30.902 324.499 19.5896 319.717 10.3926C316.498 4.23062 310.152 0.367877 303.254 0.275907H280.538C279.71 0.275907 278.974 0.919698 278.974 1.74743V54.2624C278.974 54.9062 279.526 55.458 280.17 55.458H292.494C293.138 55.458 293.689 54.9062 293.689 54.2624V37.7078H295.161L306.657 54.4463C307.209 55.1821 308.037 55.6419 308.956 55.6419H322.844C323.672 55.6419 324.315 54.9981 324.223 54.1704C324.223 53.8945 324.131 53.6186 323.947 53.3427L311.715 35.6844ZM308.497 18.9458C308.588 21.8889 306.197 24.2801 303.346 24.2801H293.873V13.6116H303.346C306.197 13.7035 308.497 16.0948 308.497 18.9458ZM245.221 -3.45148e-06C231.242 -0.643794 218.918 9.19701 216.342 22.9006C213.123 40.5588 226.459 55.9178 244.025 55.9178C250.095 55.9178 255.982 53.9865 260.856 50.3996C261.408 50.0317 261.5 49.296 261.224 48.8361C261.132 48.7442 261.132 48.6522 261.04 48.5602L252.947 41.2026C252.671 40.9267 252.119 40.8347 251.751 41.1106C249.544 42.3982 247.06 43.134 244.485 43.134C238.047 43.134 232.437 38.9034 231.15 33.5691H270.605C271.433 33.5691 272.076 32.9253 272.076 32.0976V27.4991C271.616 14.5313 262.052 0.643788 245.221 -3.45148e-06ZM231.518 21.7969C234.001 16.7386 238.599 13.0598 244.669 13.0598C250.279 12.8758 255.338 16.4627 256.901 21.7969H231.518ZM59.1655 1.10364L31.2985 25.9356L3.43157 1.10364C2.60384 0.367877 1.31626 0.367877 0.580496 1.19561C0.212615 1.65546 0.0286751 2.11531 0.0286751 2.57516V53.8025C0.0286751 54.7222 0.764436 55.458 1.68414 55.458H13.0884C14.0081 55.458 14.7439 54.7222 14.7439 53.8025V30.81L29.4591 43.9617C30.4708 44.8814 32.0343 44.8814 33.046 43.9617L47.7612 30.902V53.8945C47.7612 54.8142 48.4969 55.55 49.4166 55.55H60.8209C61.7406 55.55 62.4764 54.8142 62.4764 53.8945V2.57516C62.4764 1.47152 61.5567 0.551817 60.453 0.551817C59.9932 0.551817 59.5334 0.735758 59.1655 1.10364ZM125.292 54.1704V1.93137C125.292 1.01167 124.556 0.275907 123.637 0.275907H112.508C111.588 0.275907 110.853 1.01167 110.853 1.93137V4.50653C106.714 2.11531 102.024 0.827728 97.2411 0.827728C82.066 1.10364 70.0179 13.6116 70.2939 28.8786C70.5698 43.6858 82.5259 55.6419 97.3331 55.9178C102.116 55.9178 106.806 54.6303 110.945 52.239V54.2624C110.945 55.1821 111.68 55.9178 112.6 55.9178H123.729C124.556 55.8259 125.292 55.0901 125.292 54.1704ZM97.701 41.1106C90.6193 41.1106 84.9171 35.4085 84.9171 28.3268C84.9171 21.2451 90.6193 15.5429 97.701 15.5429C104.783 15.5429 110.485 21.2451 110.485 28.3268C110.485 35.4085 104.783 41.1106 97.701 41.1106ZM359.448 36.5121C360.092 36.5121 360.644 35.9603 360.644 35.3165V24.2801C360.644 23.6363 360.092 23.0845 359.448 23.0845H345.377V13.6116H361.103C361.747 13.6116 362.299 13.0598 362.299 12.416V1.47152C362.299 0.827728 361.747 0.275907 361.103 0.275907H332.225C331.397 0.275907 330.661 0.919698 330.661 1.74743V53.9865C330.661 54.8142 331.305 55.55 332.225 55.55H343.905C344.733 55.55 345.468 54.9062 345.468 53.9865V36.5121H359.448ZM127.131 81.6695L127.223 81.5775C127.499 81.2096 127.775 80.7498 127.959 80.2899C128.143 79.8301 128.235 79.3702 128.235 78.8184C128.235 77.7148 127.867 76.7031 127.223 75.8754C126.947 75.5075 126.58 75.1396 126.212 74.7717C125.384 74.2199 124.372 73.852 123.361 73.852H116.647V90.7745H123.82C124.372 90.7745 124.924 90.6825 125.384 90.4986C127.591 89.8548 129.063 87.8315 129.063 85.6242C129.063 84.5205 128.695 83.4169 128.051 82.5892C127.775 82.2213 127.407 81.9454 127.131 81.6695ZM119.866 76.887H123.361C123.545 76.887 123.82 76.979 124.004 77.071C124.188 77.1629 124.372 77.3469 124.556 77.5308C124.832 77.8987 125.016 78.3586 125.016 78.8184C125.016 79.1863 124.832 79.5542 124.648 79.8301L124.188 80.2899C124.004 80.3819 123.82 80.4739 123.637 80.4739H119.958L119.866 76.887ZM125.108 87.2797C124.74 87.6475 124.28 87.8315 123.729 87.8315H119.866V83.5089H123.637C123.912 83.5089 124.188 83.5089 124.464 83.6008C124.74 83.6928 124.924 83.8768 125.108 84.0607C125.292 84.2446 125.476 84.5205 125.568 84.7965C125.936 85.6242 125.66 86.6359 125.108 87.2797ZM174.22 82.7731C174.588 82.3133 174.864 81.7614 175.048 81.2096C175.232 80.6578 175.324 80.106 175.324 79.5542C175.324 78.9104 175.232 78.2666 175.048 77.7148C174.864 77.1629 174.588 76.6111 174.22 76.1513C173.852 75.6914 173.484 75.2316 172.933 74.9557C172.473 74.5878 171.921 74.3119 171.369 74.2199C170.817 74.0359 170.265 73.944 169.622 73.944H161.896V90.8665H165.115V85.1643H169.162L171.921 90.8665H175.508L172.381 84.4286C173.116 83.9687 173.76 83.4169 174.22 82.7731ZM171.645 81.0257C171.369 81.3016 171.093 81.5775 170.725 81.7614C170.449 81.9454 170.081 82.0374 169.714 82.0374H165.207V76.887H169.714C170.081 76.887 170.357 76.979 170.725 77.1629C171.093 77.3469 171.369 77.5308 171.553 77.8067C172.013 78.2666 172.197 78.9104 172.197 79.5542C172.105 80.106 171.921 80.6578 171.645 81.0257ZM213.032 73.944L207.881 90.7745H211.192L212.02 88.1074H218.918L219.745 90.7745H223.056L217.906 73.852H213.032V73.944ZM212.848 85.1643L215.331 76.887L217.906 85.1643H212.848ZM266.098 85.1643L258.741 73.944H255.522V90.7745H258.741V79.5542L266.098 90.7745H269.317V73.944H266.098V85.1643ZM314.658 76.1513C314.015 75.4155 313.187 74.8637 312.267 74.4958C311.256 74.1279 310.152 73.944 309.048 73.944H303.07V90.8665H309.048C310.152 90.8665 311.256 90.6825 312.267 90.3147C313.279 89.9468 314.107 89.395 314.842 88.5672C315.578 87.7395 316.13 86.8198 316.498 85.8081C316.866 84.7045 317.05 83.6008 317.05 82.4052C317.05 81.2096 316.866 80.106 316.498 79.0023C315.946 77.8987 315.394 76.979 314.658 76.1513ZM313.187 84.6125C313.003 85.2563 312.635 85.9001 312.175 86.4519C311.348 87.2797 310.152 87.8315 308.956 87.7395H306.289V76.979H309.048C309.692 76.979 310.336 77.1629 310.888 77.3469C311.44 77.5308 311.899 77.8987 312.267 78.3586C313.187 79.5542 313.555 81.0257 313.555 82.4052C313.555 83.141 313.463 83.9687 313.187 84.6125ZM361.471 82.5892C361.103 82.2213 360.644 81.9454 360.184 81.6695C359.632 81.3936 358.988 81.1177 358.344 80.9337L355.401 80.106C354.666 79.922 354.022 79.6461 353.47 79.1863C353.286 79.0023 353.102 78.7264 353.102 78.3586C353.102 78.0826 353.194 77.8067 353.286 77.6228C353.47 77.3469 353.654 77.1629 353.93 76.979C354.482 76.6111 355.125 76.5191 355.861 76.5191C356.597 76.5191 357.333 76.7031 357.976 77.1629C358.344 77.3469 358.62 77.6228 358.896 77.8987C359.172 78.2666 359.356 78.6345 359.54 79.0023L362.759 78.1746C362.483 77.3469 362.023 76.6111 361.471 75.8754C360.919 75.2316 360.276 74.6797 359.54 74.3119C358.436 73.76 357.241 73.4841 355.953 73.4841C355.309 73.4841 354.757 73.5761 354.114 73.6681C353.562 73.76 352.918 73.944 352.366 74.2199C351.539 74.5878 350.895 75.1396 350.435 75.8754C349.883 76.6111 349.699 77.4388 349.699 78.3586C349.699 79.0023 349.791 79.6461 350.067 80.198C350.343 80.7498 350.711 81.3016 351.171 81.6695C352.09 82.4052 353.194 82.9571 354.39 83.233L357.517 84.1527C358.068 84.3366 358.62 84.5206 358.988 84.8884C359.356 85.1643 359.54 85.6242 359.54 86.084C359.54 86.6359 359.264 87.1877 358.896 87.4636C358.528 87.7395 358.16 87.9234 357.701 88.0154C357.241 88.1074 356.781 88.1994 356.229 88.1994C355.585 88.1994 355.033 88.1074 354.482 87.8315C353.93 87.6475 353.47 87.2797 353.102 86.8198C352.642 86.176 352.366 85.5322 352.274 84.7045L349.055 85.6242C349.331 86.8198 349.791 87.9234 350.619 88.9351C351.263 89.7628 352.09 90.3147 353.01 90.6825C354.022 91.0504 355.125 91.2344 356.229 91.2344C357.057 91.2344 357.976 91.1424 358.804 90.9585C359.54 90.7745 360.184 90.4986 360.828 90.1307C361.471 89.6709 362.023 89.1191 362.391 88.3833C362.759 87.7395 362.943 87.0037 362.943 86.176C362.943 85.5322 362.851 84.8884 362.575 84.2446C362.483 83.6928 362.023 83.049 361.471 82.5892Z" fill="#231F20"/>
</svg>
