<svg width="121" height="121" viewBox="0 0 121 121" fill="none" xmlns="http://www.w3.org/2000/svg">
<path d="M60.75 0.25C27.618 0.25 0.75 27.118 0.75 60.25C0.75 93.382 27.618 120.25 60.75 120.25C93.882 120.25 120.75 93.382 120.75 60.25C120.75 27.118 93.882 0.25 60.75 0.25ZM60.75 117.85C28.986 117.85 3.15 92.014 3.15 60.25C3.15 28.486 28.986 2.65 60.75 2.65C92.514 2.65 118.35 28.486 118.35 60.25C118.35 92.014 92.514 117.85 60.75 117.85ZM45.15 89.05C39.846 89.05 35.55 93.346 35.55 98.65C35.55 103.954 39.846 108.25 45.15 108.25C50.454 108.25 54.75 103.954 54.75 98.65C54.75 93.346 50.454 89.05 45.15 89.05ZM45.15 105.85C41.178 105.85 37.95 102.622 37.95 98.65C37.95 94.678 41.178 91.45 45.15 91.45C49.122 91.45 52.35 94.678 52.35 98.65C52.35 102.622 49.122 105.85 45.15 105.85ZM28.242 57.25L36.99 48.502L35.298 46.81L26.55 55.558L17.802 46.81L16.11 48.502L24.858 57.25L16.11 65.998L17.802 67.69L26.55 58.942L35.298 67.69L36.99 65.998L28.242 57.25ZM51.402 35.302L60.15 26.554L68.898 35.302L70.59 33.61L61.842 24.862L70.59 16.114L68.898 14.422L60.15 23.17L51.402 14.422L49.71 16.114L58.458 24.862L49.71 33.61L51.402 35.302ZM94.098 73.198L85.35 81.946L76.602 73.198L74.91 74.89L83.658 83.638L74.91 92.386L76.602 94.078L85.35 85.33L94.098 94.078L95.79 92.386L87.042 83.638L95.79 74.89L94.098 73.198ZM88.362 31.69L89.85 40.858C78.81 42.238 70.23 46.87 64.782 50.746C63.078 49.198 60.834 48.25 58.35 48.25C53.046 48.25 48.75 52.546 48.75 57.85C48.75 63.154 53.046 67.45 58.35 67.45C63.654 67.45 67.95 63.154 67.95 57.85C67.95 55.918 67.374 54.118 66.39 52.606C71.646 48.922 79.866 44.53 90.246 43.234L91.698 52.21L107.802 39.07L88.362 31.69ZM58.35 65.05C54.378 65.05 51.15 61.822 51.15 57.85C51.15 53.878 54.378 50.65 58.35 50.65C62.322 50.65 65.55 53.878 65.55 57.85C65.55 61.822 62.322 65.05 58.35 65.05ZM91.398 35.41L103.062 39.838L93.402 47.722L91.398 35.41ZM46.95 82.75L44.598 82.282C44.43 83.098 44.286 83.95 44.154 84.802L46.53 85.15C46.662 84.334 46.794 83.53 46.95 82.75ZM48.954 75.718L46.71 74.878C46.422 75.658 46.134 76.474 45.882 77.302L48.174 78.022C48.414 77.23 48.678 76.462 48.954 75.718ZM52.05 69.094L49.962 67.906C49.554 68.626 49.146 69.382 48.75 70.174L50.898 71.254C51.27 70.498 51.666 69.778 52.05 69.094Z" fill="white"/>
</svg>
