<svg width="121" height="121" viewBox="0 0 121 121" fill="none" xmlns="http://www.w3.org/2000/svg">
<path d="M60.25 0.25C27.118 0.25 0.25 27.118 0.25 60.25C0.25 93.382 27.118 120.25 60.25 120.25C93.382 120.25 120.25 93.382 120.25 60.25C120.25 27.118 93.382 0.25 60.25 0.25ZM60.25 117.85C28.486 117.85 2.65 92.014 2.65 60.25C2.65 28.486 28.486 2.65 60.25 2.65C92.014 2.65 117.85 28.486 117.85 60.25C117.85 92.014 92.014 117.85 60.25 117.85ZM91.45 57.85H98.65V56.65H91.45V57.85ZM29.05 56.65H21.85V57.85H29.05V56.65ZM93.802 38.566L93.202 37.522L86.962 41.122L87.562 42.166L93.802 38.566ZM26.698 75.934L27.298 76.978L33.538 73.378L32.938 72.334L26.698 75.934ZM79.966 24.298L78.922 23.698L75.322 29.938L76.366 30.538L79.966 24.298ZM60.85 18.85H59.65V26.05H60.85V18.85ZM45.166 29.926L41.566 23.686L40.522 24.286L44.122 30.526L45.166 29.926ZM26.698 38.566L32.938 42.166L33.538 41.122L27.298 37.522L26.698 38.566ZM86.974 73.366L93.214 76.966L93.814 75.922L87.574 72.322L86.974 73.366ZM60.25 31.45C46.33 31.45 35.05 42.73 35.05 56.65C35.05 66.214 40.402 74.506 48.25 78.766V94.342L53.758 99.85H66.754L72.25 94.342V78.766C80.098 74.506 85.45 66.214 85.45 56.65C85.45 42.73 74.17 31.45 60.25 31.45ZM65.758 97.45H54.754L51.154 93.85H69.358L65.758 97.45ZM69.85 92.65H50.65V89.05H69.85V92.65ZM69.85 87.85H50.65V84.25H69.85V87.85ZM69.85 83.05H50.65V79.45H69.85V83.05ZM56.65 64.45C56.65 65.47 57.046 66.334 57.814 66.946C58.462 67.462 59.326 67.75 60.25 67.75C62.038 67.75 63.85 66.622 63.85 64.45C63.85 63.166 62.83 61.87 61.246 60.574C63.31 59.146 65.986 57.694 68.374 56.398C68.806 56.158 69.238 55.93 69.658 55.702C68.41 63.034 66.898 73.582 66.418 77.038H54.082C53.59 73.582 52.09 63.034 50.842 55.702C51.262 55.93 51.694 56.158 52.126 56.398C54.514 57.694 57.19 59.146 59.254 60.574C57.67 61.87 56.65 63.166 56.65 64.45ZM60.25 61.306C61.702 62.422 62.65 63.502 62.65 64.45C62.65 65.902 61.45 66.55 60.25 66.55C59.05 66.55 57.85 65.902 57.85 64.45C57.85 63.502 58.798 62.422 60.25 61.306ZM70.354 77.05H67.618C68.146 73.294 69.754 62.134 70.99 54.97C74.11 53.23 76.534 51.67 77.014 50.242C77.326 49.294 77.314 48.406 76.954 47.662C76.63 46.978 76.042 46.474 75.31 46.234C73.822 45.73 71.818 46.414 71.074 48.658C70.786 49.51 70.378 51.562 69.91 54.19C69.202 54.574 68.494 54.97 67.798 55.342C65.086 56.806 62.338 58.306 60.25 59.806C58.162 58.306 55.402 56.806 52.702 55.342C52.006 54.97 51.286 54.574 50.59 54.19C50.122 51.55 49.714 49.51 49.426 48.658C48.682 46.414 46.69 45.73 45.19 46.234C44.458 46.474 43.87 46.99 43.546 47.662C43.198 48.406 43.174 49.294 43.486 50.242C43.966 51.67 46.378 53.23 49.51 54.97C50.746 62.134 52.354 73.294 52.882 77.05H50.146C42.634 73.318 37.45 65.59 37.45 56.65C37.45 44.074 47.674 33.85 60.25 33.85C72.826 33.85 83.05 44.074 83.05 56.65C83.05 65.59 77.866 73.318 70.354 77.05ZM71.278 53.434C71.662 51.334 71.986 49.738 72.226 49.042C72.634 47.818 73.51 47.278 74.35 47.278C74.554 47.278 74.758 47.314 74.95 47.374C75.37 47.518 75.706 47.806 75.886 48.19C76.102 48.646 76.102 49.222 75.886 49.87C75.574 50.782 73.618 52.09 71.278 53.434ZM49.222 53.434C46.882 52.09 44.926 50.782 44.614 49.858C44.398 49.21 44.398 48.634 44.614 48.178C44.794 47.794 45.13 47.506 45.55 47.362C45.742 47.302 45.946 47.266 46.15 47.266C46.978 47.266 47.866 47.806 48.274 49.03C48.514 49.75 48.85 51.334 49.222 53.434Z" fill="white"/>
</svg>
