<svg width="121" height="121" viewBox="0 0 121 121" fill="none" xmlns="http://www.w3.org/2000/svg">
<path d="M60.75 0.25C27.618 0.25 0.75 27.118 0.75 60.25C0.75 93.382 27.618 120.25 60.75 120.25C93.882 120.25 120.75 93.382 120.75 60.25C120.75 27.118 93.882 0.25 60.75 0.25ZM60.75 117.85C28.986 117.85 3.15 92.014 3.15 60.25C3.15 28.486 28.986 2.65 60.75 2.65C92.514 2.65 118.35 28.486 118.35 60.25C118.35 92.014 92.514 117.85 60.75 117.85ZM37.95 29.05H40.35V27.85H37.95V29.05ZM54.75 27.85H52.35V29.05H54.75V27.85ZM61.95 27.85H59.55V29.05H61.95V27.85ZM45.15 29.05H47.55V27.85H45.15V29.05ZM69.15 27.85H66.75V29.05H69.15V27.85ZM37.95 86.65H40.35V85.45H37.95V86.65ZM45.15 86.65H47.55V85.45H45.15V86.65ZM52.35 86.65H54.75V85.45H52.35V86.65ZM78.642 64.486C79.194 51.682 78.03 37.654 75.15 28.858V20.65H29.55V28.858C24.702 43.642 24.702 73.246 29.55 86.866V95.05H59.322C59.658 95.902 59.97 96.682 60.246 97.318C62.214 101.902 67.518 104.05 76.95 104.05C86.382 104.05 91.686 101.914 93.654 97.318C95.454 93.118 99.222 81.706 99.354 81.298L99.462 81.022C101.922 79.366 103.35 77.398 103.35 75.238C103.35 69.322 92.838 64.822 78.642 64.486ZM31.95 92.65V86.65H33.15V85.45H31.614C27.186 72.13 27.27 43.282 31.89 29.434L31.95 29.242V29.05H33.15V27.85H31.95V23.05H72.75V29.242L72.81 29.422C75.618 37.846 76.746 51.802 76.206 64.462C61.53 64.618 50.55 69.19 50.55 75.25C50.55 77.326 51.858 79.222 54.15 80.83L54.798 82.606C54.906 82.918 56.73 88.15 58.41 92.65H31.95ZM91.446 96.382C89.898 99.982 85.302 101.65 76.95 101.65C68.598 101.65 63.99 99.97 62.454 96.382C61.59 94.354 60.27 90.814 59.154 87.718C62.478 89.458 68.502 90.85 76.95 90.85C85.302 90.85 91.278 89.494 94.626 87.778C93.51 91.006 92.262 94.486 91.446 96.382ZM95.226 86.038C92.478 87.958 85.926 89.65 76.95 89.65C67.806 89.65 61.17 87.886 58.518 85.93C58.014 84.526 57.606 83.35 57.342 82.606C62.094 84.742 68.994 86.038 76.95 86.038C84.798 86.038 91.614 84.766 96.366 82.69C96.054 83.626 95.658 84.778 95.226 86.038ZM76.95 83.65C62.802 83.65 52.95 79.222 52.95 75.25C52.95 71.278 62.802 66.85 76.95 66.85C91.098 66.85 100.95 71.278 100.95 75.25C100.95 79.222 91.098 83.65 76.95 83.65Z" fill="white"/>
</svg>
