<svg width="121" height="121" viewBox="0 0 121 121" fill="none" xmlns="http://www.w3.org/2000/svg">
<path d="M60.25 0.25C27.118 0.25 0.25 27.118 0.25 60.25C0.25 93.382 27.118 120.25 60.25 120.25C93.382 120.25 120.25 93.382 120.25 60.25C120.25 27.118 93.382 0.25 60.25 0.25ZM60.25 117.85C28.486 117.85 2.65 92.014 2.65 60.25C2.65 28.486 28.486 2.65 60.25 2.65C92.014 2.65 117.85 28.486 117.85 60.25C117.85 92.014 92.014 117.85 60.25 117.85ZM93.25 36.19V30.25H83.65V34.762L81.31 30.094C79.882 27.226 77.002 25.45 73.798 25.45H63.502C60.298 25.45 57.418 27.226 55.99 30.094L53.506 35.05H31.45C26.818 35.05 23.05 38.818 23.05 43.45V77.05C23.05 81.682 26.818 85.45 31.45 85.45H89.05C93.682 85.45 97.45 81.682 97.45 77.05V43.45C97.45 40.354 95.758 37.642 93.25 36.19ZM86.05 32.65H90.85V35.254C90.274 35.122 89.674 35.05 89.05 35.05H86.05V32.65ZM42.25 83.05H31.45C28.138 83.05 25.45 80.362 25.45 77.05V43.45C25.45 40.138 28.138 37.45 31.45 37.45H42.25V83.05ZM95.05 77.05C95.05 80.362 92.362 83.05 89.05 83.05H43.45V37.45H54.994L58.138 31.162C59.158 29.122 61.21 27.85 63.502 27.85H73.798C76.09 27.85 78.142 29.122 79.162 31.162L82.306 37.45H89.05C92.362 37.45 95.05 40.138 95.05 43.45V77.05ZM68.65 37.45C56.734 37.45 47.05 47.134 47.05 59.05C47.05 70.966 56.734 80.65 68.65 80.65C80.566 80.65 90.25 70.966 90.25 59.05C90.25 47.134 80.566 37.45 68.65 37.45ZM68.65 78.25C58.066 78.25 49.45 69.634 49.45 59.05C49.45 48.466 58.066 39.85 68.65 39.85C79.234 39.85 87.85 48.466 87.85 59.05C87.85 69.634 79.234 78.25 68.65 78.25ZM68.65 43.45C60.034 43.45 53.05 50.434 53.05 59.05C53.05 67.666 60.034 74.65 68.65 74.65C77.266 74.65 84.25 67.666 84.25 59.05C84.25 50.434 77.266 43.45 68.65 43.45ZM68.65 73.45C60.706 73.45 54.25 66.994 54.25 59.05C54.25 51.106 60.706 44.65 68.65 44.65C76.594 44.65 83.05 51.106 83.05 59.05C83.05 66.994 76.594 73.45 68.65 73.45ZM29.05 45.85C29.05 48.502 31.198 50.65 33.85 50.65C36.502 50.65 38.65 48.502 38.65 45.85C38.65 43.198 36.502 41.05 33.85 41.05C31.198 41.05 29.05 43.198 29.05 45.85ZM33.85 42.25C35.83 42.25 37.45 43.87 37.45 45.85C37.45 47.83 35.83 49.45 33.85 49.45C31.87 49.45 30.25 47.83 30.25 45.85C30.25 43.87 31.87 42.25 33.85 42.25Z" fill="white"/>
</svg>
