<svg width="121" height="121" viewBox="0 0 121 121" fill="none" xmlns="http://www.w3.org/2000/svg">
<path d="M60.822 0.25C60.798 0.25 60.774 0.25 60.75 0.25C27.642 0.25 0.798064 27.058 0.750064 60.178C0.702064 93.31 27.534 120.202 60.678 120.25C60.702 120.25 60.726 120.25 60.75 120.25C93.846 120.25 120.702 93.442 120.75 60.322C120.798 27.19 93.966 0.298 60.822 0.25ZM60.75 117.85H60.678C28.914 117.814 3.11406 91.942 3.15006 60.178C3.18606 28.462 29.034 2.65 60.75 2.65H60.822C92.586 2.686 118.386 28.558 118.35 60.322C118.314 92.038 92.466 117.85 60.75 117.85ZM91.95 31.546H22.35V79.546H52.35V84.346H46.35V86.746H67.95V84.346H61.95V79.546H75.15V93.946H99.15V57.946H91.95V31.546ZM59.55 84.346H54.75V79.546H59.55V84.346ZM75.15 77.146H24.75V33.946H89.55V57.946H75.15V77.146ZM96.75 60.346V91.546H77.55V60.346H96.75Z" fill="white"/>
</svg>
