<svg width="121" height="121" viewBox="0 0 121 121" fill="none" xmlns="http://www.w3.org/2000/svg">
<path d="M60.322 0.25C60.298 0.25 60.274 0.25 60.25 0.25C27.142 0.25 0.298064 27.058 0.250064 60.178C0.202064 93.31 27.034 120.202 60.178 120.25C60.202 120.25 60.226 120.25 60.25 120.25C93.346 120.25 120.202 93.442 120.25 60.322C120.298 27.19 93.466 0.298 60.322 0.25ZM60.25 117.85H60.178C28.414 117.814 2.61406 91.942 2.65006 60.178C2.68606 28.462 28.534 2.65 60.25 2.65H60.322C92.086 2.686 117.886 28.558 117.85 60.322C117.814 92.038 91.966 117.85 60.25 117.85ZM97.45 84.25V43.354H99.85V28.954H20.65V43.354H23.05V84.25H17.05V86.65H30.25V92.554H25.45V94.954H66.25V92.554H61.45V86.65H74.65V92.554H71.05V94.954H92.65V92.554H89.05V86.65H103.45V84.25H97.45ZM23.05 31.354H97.45V40.954H23.05V31.354ZM59.05 92.554H32.65V73.354H59.05V92.554ZM42.25 67.354V70.954H35.05V67.354C35.05 65.374 36.67 63.754 38.65 63.754C40.63 63.754 42.25 65.374 42.25 67.354ZM35.05 58.954C35.05 56.974 36.67 55.354 38.65 55.354C40.63 55.354 42.25 56.974 42.25 58.954C42.25 60.934 40.63 62.554 38.65 62.554C36.67 62.554 35.05 60.946 35.05 58.954ZM56.65 67.354V70.954H49.45V67.354C49.45 65.374 51.07 63.754 53.05 63.754C55.03 63.754 56.65 65.374 56.65 67.354ZM49.45 58.954C49.45 56.974 51.07 55.354 53.05 55.354C55.03 55.354 56.65 56.974 56.65 58.954C56.65 60.934 55.03 62.554 53.05 62.554C51.07 62.554 49.45 60.946 49.45 58.954ZM86.65 92.554H77.05V60.154H86.65V92.554ZM86.65 58.954H77.05V56.554H86.65V58.954ZM95.05 84.25H89.05V54.154H74.65V84.25H61.45V70.954H57.85V67.354C57.85 65.53 56.818 63.97 55.33 63.154C56.83 62.338 57.85 60.778 57.85 58.954C57.85 56.302 55.702 54.154 53.05 54.154C50.398 54.154 48.25 56.302 48.25 58.954C48.25 60.778 49.282 62.338 50.77 63.154C49.27 63.97 48.25 65.53 48.25 67.354V70.954H43.45V67.354C43.45 65.53 42.418 63.97 40.93 63.154C42.43 62.338 43.45 60.778 43.45 58.954C43.45 56.302 41.302 54.154 38.65 54.154C35.998 54.154 33.85 56.302 33.85 58.954C33.85 60.778 34.882 62.338 36.37 63.154C34.87 63.97 33.85 65.53 33.85 67.354V70.954H30.25V84.25H25.45V43.354H95.05V84.25Z" fill="white"/>
</svg>
