<svg width="121" height="121" viewBox="0 0 121 121" fill="none" xmlns="http://www.w3.org/2000/svg">
<path d="M94.65 46.162L83.55 57.274V23.05H30.75V97.45H83.55V77.638L104.838 56.35L94.65 46.162ZM81.15 95.05H33.15V25.45H81.15V59.674L70.974 69.85H40.35V71.05H69.774L63.774 77.05H40.35V78.25H62.91L61.53 84.25H40.35V85.45H61.254L59.958 91.042L73.194 87.994L81.15 80.038V95.05ZM64.95 80.098L70.902 86.05L63.162 87.838L64.95 80.098ZM72.162 85.618L65.37 78.826L89.55 54.646L93.798 58.894L69.618 83.074L70.47 83.926L94.65 59.746L96.342 61.438L72.162 85.618ZM90.414 53.806L94.662 49.558L101.454 56.35L97.206 60.598L90.414 53.806ZM60.75 0.25C27.618 0.25 0.75 27.118 0.75 60.25C0.75 93.382 27.618 120.25 60.75 120.25C93.882 120.25 120.75 93.382 120.75 60.25C120.75 27.118 93.882 0.25 60.75 0.25ZM60.75 117.85C28.986 117.85 3.15 92.014 3.15 60.25C3.15 28.486 28.986 2.65 60.75 2.65C92.514 2.65 118.35 28.486 118.35 60.25C118.35 92.014 92.514 117.85 60.75 117.85ZM73.95 62.65H40.35V63.85H73.95V62.65ZM61.95 32.65H40.35V54.25H61.95V32.65ZM60.75 53.05H41.55V33.85H60.75V53.05Z" fill="white"/>
</svg>
