<svg width="121" height="121" viewBox="0 0 121 121" fill="none" xmlns="http://www.w3.org/2000/svg">
<path d="M60.25 0.25C27.118 0.25 0.25 27.118 0.25 60.25C0.25 93.382 27.118 120.25 60.25 120.25C93.382 120.25 120.25 93.382 120.25 60.25C120.25 27.118 93.382 0.25 60.25 0.25ZM60.25 117.85C28.486 117.85 2.65 92.014 2.65 60.25C2.65 28.486 28.486 2.65 60.25 2.65C92.014 2.65 117.85 28.486 117.85 60.25C117.85 92.014 92.014 117.85 60.25 117.85ZM36.25 39.85C31.606 39.85 27.85 43.606 27.85 48.25C27.85 52.894 31.606 56.65 36.25 56.65C40.894 56.65 44.65 52.894 44.65 48.25C44.65 43.606 40.894 39.85 36.25 39.85ZM36.25 55.45C32.278 55.45 29.05 52.222 29.05 48.25C29.05 44.278 32.278 41.05 36.25 41.05C40.222 41.05 43.45 44.278 43.45 48.25C43.45 52.222 40.222 55.45 36.25 55.45ZM68.65 41.65H49.45V42.85H68.65V41.65ZM68.65 47.65H49.45V48.85H68.65V47.65ZM95.05 51.85H77.05V37.45C77.05 34.138 74.362 31.45 71.05 31.45H27.85C24.538 31.45 21.85 34.138 21.85 37.45V59.05C21.85 62.362 24.538 65.05 27.85 65.05H29.05V74.89L40.306 65.05H45.85V79.45C45.85 82.762 48.538 85.45 51.85 85.45H82.594L93.85 95.29V85.45H95.05C98.362 85.45 101.05 82.762 101.05 79.45V57.85C101.05 54.538 98.362 51.85 95.05 51.85ZM45.85 57.85V62.65H39.394L31.45 69.61V62.65H27.85C25.87 62.65 24.25 61.03 24.25 59.05V37.45C24.25 35.47 25.87 33.85 27.85 33.85H71.05C73.03 33.85 74.65 35.47 74.65 37.45V51.85H51.85C48.538 51.85 45.85 54.538 45.85 57.85ZM98.65 79.45C98.65 81.43 97.03 83.05 95.05 83.05H91.45V90.01L83.506 83.05H51.85C49.87 83.05 48.25 81.43 48.25 79.45V57.85C48.25 55.87 49.87 54.25 51.85 54.25H95.05C97.03 54.25 98.65 55.87 98.65 57.85V79.45ZM86.65 60.25C82.006 60.25 78.25 64.006 78.25 68.65C78.25 73.294 82.006 77.05 86.65 77.05C91.294 77.05 95.05 73.294 95.05 68.65C95.05 64.006 91.294 60.25 86.65 60.25ZM86.65 75.85C82.678 75.85 79.45 72.622 79.45 68.65C79.45 64.678 82.678 61.45 86.65 61.45C90.622 61.45 93.85 64.678 93.85 68.65C93.85 72.622 90.622 75.85 86.65 75.85ZM54.25 63.25H73.45V62.05H54.25V63.25ZM54.25 69.25H73.45V68.05H54.25V69.25ZM54.25 75.25H66.25V74.05H54.25V75.25Z" fill="white"/>
</svg>
